<svg id="wallstreetlogo-black" xmlns="http://www.w3.org/2000/svg" width="283.229" height="24" viewBox="0 0 283.229 24">
  <path id="path13406" d="M348.811,722.145a1.618,1.618,0,1,0,1.511,1.614,1.549,1.549,0,0,0-1.511-1.614M294.15,725.27h6.935v-.618l-.754-.172c-.687-.172-1-.549-1-1.511V713.63h1.614c1,0,1.511.24,1.579,2.335l.172,4.395c.137,3.948,1.27,5.047,3.194,5.047,1.957,0,2.472-1.339,2.472-3.227v-.79h-.722v.583c0,1.271-.171,2.164-.652,2.164-.446,0-.48-.343-.584-1.923l-.206-3.021c-.275-4.052-.79-5.46-3.777-6.009a5.765,5.765,0,0,0,4.6-5.837c0-3.88-3.056-5.734-5.974-5.734H289.343v.618l.652.137c1.236.275,1.27.927,1.27,3.709v13.665c0,3.056-.859,4.532-2.816,4.532-1.75,0-2.712-.859-2.712-4.189v-16.24c0-.961.309-1.236,1.064-1.408l.927-.206v-.618h-7.175v.618l.755.206c.687.206.927.481.927,1.442v15.966c0,3.605,2.095,5.6,5.288,5.6s4.772-1.992,4.772-5.7v-14.9c0-1.854.378-2.506,1.888-2.506,1.2,0,1.718.412,1.718,1.545v19.09c0,.962-.309,1.305-1,1.477l-.755.206Zm46.077-21.391c0-.961.31-1.27,1-1.408l.927-.206v-.652h-7.142v.618l.755.206c.687.206,1,.481,1,1.442v19.228c0,.927-.377,1.442-1.442,1.442-1.236,0-1.408-.412-1.854-2.437l-4.395-20.567h-1.374l-4.188,19.914c-.481,2.232-.722,2.747-1.649,3.022l-.584.172v.618h4.91v-.618l-.721-.138c-1.03-.206-1.3-.755-.79-3.365l2.472-12.738,2.712,13.494c.412,1.957.378,2.335-1.1,2.609l-.721.138v.618h18.2v-7.828h-.652c-.343,3.6-1.064,7-3.982,7h-1.374V703.879Zm-10.712,15v-.927h-4.635l-.137.927Zm-19.159-14.592V720.7c0,2.472,0,3.64-1.236,3.846l-.618.1v.618h5.047v-.618c-2.2-.309-2.2-1.064-2.2-3.743V705.321l-.824-.755,8.412,20.7h1.441V706.18c0-2.816,0-3.433,1.374-3.812l.48-.137v-.618h-5.185v.618l.584.137c1.751.309,1.751,1,1.751,3.605v11.948l.344-.1-6.386-16.206h-4.91v.618l.48.137c.55.172.859.79,1.442,1.923m-11.022-1.854h1.374c1.373,0,2.644.892,2.644,5.356,0,4.567-.961,5.013-2.884,5.013h-1.134Zm-22.866,10.781c0,9.922-.824,11.33-2.61,11.33s-2.575-1.408-2.575-11.262c0-9.545.859-10.919,2.575-10.919,1.786,0,2.61,1.374,2.61,10.85m3.743.206c0-6.558-2.095-11.983-6.353-11.983-4.292,0-6.318,5.425-6.318,11.983,0,6.592,2.095,12.017,6.318,12.017,4.361,0,6.353-5.425,6.353-12.017m-14.7-9.545c0-.961.24-1.27.926-1.442l.755-.206v-.618h-7.107v.618l.858.206c.687.172,1.065.412,1.065,1.408V720.36c0,2.3-.206,4.154-1.923,4.154-1.1,0-1.923-.858-1.888-1.476.1-1.065,1.888-1,2.025-2.713a1.582,1.582,0,0,0-1.408-1.854,2.329,2.329,0,0,0-2.4,2.54,4.077,4.077,0,0,0,4.052,4.395c2.85,0,5.048-1.923,5.048-5.6Zm-114.679,0c0-.961.309-1.27,1-1.408l.927-.206v-.652h-7.142v.618l.755.206c.687.206,1,.481,1,1.442v19.228c0,.927-.378,1.442-1.442,1.442-1.236,0-1.442-.412-1.888-2.437l-4.395-20.567h-1.373l-4.189,19.914c-.48,2.232-.721,2.747-1.648,3.022l-.584.172v.618h4.91v-.618l-.721-.138c-1.03-.206-1.3-.755-.79-3.365l2.472-12.807,2.712,13.563c.377,1.957.377,2.335-1.1,2.609l-.721.138v.618h18.232v-7.828h-.652c-.343,3.6-1.064,7-3.983,7h-1.374Zm95.588-1.442h.756c2.129,0,2.85,3.4,3.09,7h.652v-7.829H238.458v7.829h.652c.241-3.605.962-7,3.09-7h.755v20.532c0,.962-.309,1.305-1,1.477l-.893.206v.618h7.417v-.618l-1.065-.24c-.652-.172-1-.378-1-1.443V702.437ZM230.733,713.39l1.064.035c1.545.034,1.991.618,2.3,4.361h.652V708.24H234.1c-.378,2.987-.79,4.257-2.267,4.292l-1.1.034V702.437H233.1c2.644,0,3.228,3.331,3.6,7h.652v-7.829H225.514v.618l.755.206c.789.206,1,.687,1,1.477v19.055c0,.962-.309,1.305-1,1.477l-.755.206v.618H237.7v-7.828h-.652c-.412,3.571-.858,7-3.948,7h-2.369V713.39Zm-12.944,0,1.064.035c1.545.034,1.991.618,2.3,4.361h.652V708.24h-.652c-.377,2.987-.79,4.257-2.266,4.292l-1.1.034V702.437h2.369c2.644,0,3.228,3.4,3.6,7h.652v-7.829H212.227v.618l1.1.206c.79.206,1,.687,1,1.477v19.055c0,.962-.309,1.305-1,1.477l-.755.206v.618h12.189v-7.828h-.652c-.412,3.571-.859,7-3.949,7h-2.369Zm-14.112-10.953h1.03c1.373,0,2.644.892,2.644,5.356,0,4.5-.961,5.013-2.884,5.013h-.79Zm-5.185,22.833h6.936v-.618l-.756-.172c-.687-.172-1-.549-1-1.511V713.63h1.27c1,0,1.511.412,1.58,2.335l.171,4.395c.138,3.948,1.271,5.047,3.193,5.047,1.957,0,2.472-1.339,2.472-3.227v-.79h-.721v.583c0,1.271-.171,2.164-.652,2.164-.446,0-.481-.343-.583-1.923l-.207-3.021c-.274-4.155-.824-5.46-3.776-6.009a5.765,5.765,0,0,0,4.6-5.837c0-3.88-3.056-5.734-5.974-5.734h-6.558v.618l.755.206c.687.206,1,.481,1,1.442v19.09c0,.962-.309,1.305-1,1.477l-.755.206v.618Zm-5.253-22.833h.755c2.128,0,2.85,3.4,3.09,7h.652v-7.829H185.273v7.829h.652c.24-3.605.961-7,3.09-7h.755v20.532c0,.962-.31,1.305-1,1.477l-.893.206v.618h7.245v-.618l-.893-.206a1.285,1.285,0,0,1-1-1.477Zm-7.932,16.687c0-7.039-7.725-8.893-7.725-14.008,0-1.1.412-2.747,2.128-2.747,2.472,0,3.4,3.193,3.812,7.073h.652v-7.829h-.412c-.172.755-.481,1.1-.927,1.1-.79,0-1.2-1.236-3.09-1.236-2.918,0-4.91,2.438-4.91,5.631,0,5.8,7.726,8.24,7.726,13.6,0,2.438-1.133,3.811-2.678,3.811-2.3,0-3.811-2.712-4.223-7.073h-.652v7.828h.412c.343-1.133.79-1.236,1.167-1.236.653,0,1.339,1.373,3.331,1.373,3.056,0,5.391-2.643,5.391-6.284m-22.489-15.245c0-.961.309-1.27,1-1.408l.927-.206v-.652H157.6v.618l.755.206c.687.206,1,.481,1,1.442v19.09c0,.962-.309,1.305-1,1.477l-.755.206v.618h11.228v-7.828h-.653c-.343,3.605-1.064,7-3.982,7h-1.374Zm-22.73,15v-.927h-4.635l-.138.927Zm-19.845,6.455h1.408l3.193-16.893h-.48l3.5,16.893H129.1l4.189-19.914c.446-2.095.687-2.815,1.511-3.022l.652-.171v-.618h-4.841v.618l.721.137c1.03.206,1.27.824.79,3.365l-2.712,13.356h.412l-2.747-14.077c-.275-1.339-.446-2.438.687-2.644l.755-.137v-.618h-6.627v.618l.446.1c.687.171.79.584,1.064,1.889l1.064,5.116-.206-3.09-2.369,12.5h.309l-2.781-13.734c-.309-1.408-.412-2.472.687-2.678l.516-.1v-.618h-6.764v.618l.652.171c.618.172.961.481,1.374,2.369ZM101.908,713.39l1.064.035c1.545.034,1.991.618,2.3,4.361h.652V708.24h-.652c-.377,2.987-.79,4.257-2.266,4.292l-1.1.034V702.437h2.369c2.644,0,3.228,3.4,3.605,7h.652v-7.829H96.689v.618l.755.206c.79.206,1,.687,1,1.476v19.055c0,.962-.309,1.305-1,1.477l-.755.206v.618h12.189v-7.828h-.653c-.412,3.571-.858,7-3.948,7h-2.369Zm-21.6,11.88H87.35v-.618l-.79-.172c-.618-.137-1.03-.549-1.03-1.511V713.6h5.185v9.373c0,.962-.412,1.374-1.03,1.511l-.79.172v.618h7.039v-.618l-.755-.206c-.687-.172-1-.55-1-1.511V703.879c0-.961.31-1.27,1-1.442l.755-.206v-.618H88.9v.618l.79.206a1.225,1.225,0,0,1,1.03,1.408v8.824H85.53v-8.824c0-.961.378-1.236,1.03-1.408l.79-.206v-.618H80.311v.618l.755.206c.687.206,1,.481,1,1.442v19.09c0,.962-.309,1.305-1,1.477l-.755.206Zm-5.253-22.832h.756c2.128,0,2.85,3.4,3.09,7h.652v-7.829H67.092v7.829h.652c.24-3.605.961-7,3.09-7h.755v20.532c0,.962-.309,1.305-1,1.477l-.893.206v.618h7.417v-.618l-1.064-.24c-.652-.172-1-.378-1-1.443V702.437Z" transform="translate(-67.092 -701.441)" fill="#1c1c21"/>
</svg>
