<svg xmlns="http://www.w3.org/2000/svg" width="22.063" height="22.063" viewBox="0 0 22.063 22.063">
  <path id="copyright" d="M16.031,5A11.031,11.031,0,1,0,27.063,16.031,11.031,11.031,0,0,0,16.031,5Zm.039,18.189c-1.232.6-3.138.083-2.8-1.158l1.8-6.707c.629-2.346-1.1-1.577-1.875-1.237a4.787,4.787,0,0,1,1.9-1.657c1.232-.6,3.138-.083,2.805,1.157l-1.8,6.707c-.629,2.346,1.1,1.577,1.875,1.237A4.788,4.788,0,0,1,16.07,23.189ZM18.838,10.06a1.141,1.141,0,1,1-.807-1.4A1.141,1.141,0,0,1,18.838,10.06Z" transform="translate(-5 -5)" fill="#fc262d"/>
</svg>
